#tb 0: 1/30
0,          0,          0,        1,   145152, 0x8458d4cb
0,          1,          1,        1,   145152, 0xa694d7c7
0,          2,          2,        1,   145152, 0x2bd4bfc9
0,          3,          3,        1,   145152, 0xe53b1616
0,          4,          4,        1,   145152, 0x6a0a806a
0,          5,          5,        1,   145152, 0x45f7b8e6
0,          6,          6,        1,   145152, 0x4e14150e
0,          7,          7,        1,   145152, 0xe1cd9b6f
0,          8,          8,        1,   145152, 0x5b5802d7
0,          9,          9,        1,   145152, 0xb03da5e7
0,         10,         10,        1,   145152, 0x3436b06e
0,         11,         11,        1,   145152, 0x4535e638
0,         12,         12,        1,   145152, 0x72934af1
0,         13,         13,        1,   145152, 0xb672d459
0,         14,         14,        1,   145152, 0xab57491b
0,         15,         15,        1,   145152, 0xdbac3480
0,         16,         16,        1,   145152, 0x54215962
0,         17,         17,        1,   145152, 0x451f456e
0,         18,         18,        1,   145152, 0xa17655d1
0,         19,         19,        1,   145152, 0xce95422c
0,         20,         20,        1,   145152, 0xe0ee8e77
0,         21,         21,        1,   145152, 0xdaabe277
0,         22,         22,        1,   145152, 0xc21bb665
0,         23,         23,        1,   145152, 0x1e74270e
0,         24,         24,        1,   145152, 0xae7bac5f
0,         25,         25,        1,   145152, 0xf62442ed
0,         26,         26,        1,   145152, 0x5c8d8984
0,         27,         27,        1,   145152, 0x97a69fe7
0,         28,         28,        1,   145152, 0x1f244d19
0,         29,         29,        1,   145152, 0x2758bc25
0,         30,         30,        1,   145152, 0xf43ddb89
0,         31,         31,        1,   145152, 0x086a524e
0,         32,         32,        1,   145152, 0x8b464d4d
0,         33,         33,        1,   145152, 0xb77b63d2
0,         34,         34,        1,   145152, 0xfd842fa8
0,         35,         35,        1,   145152, 0xa98b6dbe
0,         36,         36,        1,   145152, 0xdedbab2c
0,         37,         37,        1,   145152, 0x24e19172
0,         38,         38,        1,   145152, 0x1ef456f6
0,         39,         39,        1,   145152, 0xaceabdf0
0,         40,         40,        1,   145152, 0xb54de3d9
0,         41,         41,        1,   145152, 0x3af0df9b
0,         42,         42,        1,   145152, 0xf89fbd9a
0,         43,         43,        1,   145152, 0xc6a9673c
0,         44,         44,        1,   145152, 0x6d5a929e
0,         45,         45,        1,   145152, 0x879e7d9b
0,         46,         46,        1,   145152, 0x233c14eb
0,         47,         47,        1,   145152, 0x8246f081
0,         48,         48,        1,   145152, 0x3366c4bf
0,         49,         49,        1,   145152, 0x6b0203da
0,         50,         50,        1,   145152, 0x48a00163
0,         51,         51,        1,   145152, 0xe956ac2c
0,         52,         52,        1,   145152, 0xa2511283
0,         53,         53,        1,   145152, 0x7e03222d
0,         54,         54,        1,   145152, 0xc31a7a40
0,         55,         55,        1,   145152, 0x80448031
0,         56,         56,        1,   145152, 0xe3b1fbf7
0,         57,         57,        1,   145152, 0xa00395a4
